# xmcd CD database file
#
# Track frame offsets:
#	150
#	19485
#	33055
#	49284
#	63436
#	77829
#	90458
#	103263
#	116693
#	131085
#	156860
#	177041
#	193179
#	202648
#
# Disc length: 2892 seconds
#
# Revision: 3
# Processed by: cddbd v1.5.2PL0 Copyright (c) Steve Scherf et al.
# Submitted via: CDex 1.70beta2
#
DISCID=b90b4a0e
DTITLE=Various Artist - Montecarlo Night Jazz 3/3
DYEAR=2007
DGENRE=Jazz
TTITLE0=Nina Simone - My Baby Just Cares For Me
TTITLE1=Coleman Hawkins - Body And Soul
TTITLE2=Dizzy Gillespie - Desafinado
TTITLE3=Duke Ellington - Perdido
TTITLE4=Charlie Parker - Round Midnight
TTITLE5=Nat King Cole - (Get Your Kicks On) Route 66
TTITLE6=Dinah Washington - Cry Me A River
TTITLE7=Charlie Parker - Ornitology
TTITLE8=Cab Calloway - Minnie The Moocher
TTITLE9=Miles Davis Quintet - Chasin' The Bird
TTITLE10=Anita O'Day - Sweet Georgia Brown
TTITLE11=Quincy Jones and His Orchestra - Take Five
TTITLE12=Tony Bennett With The The Count Basie Orchestra - Jeepers Creepers
TTITLE13=Frank Sinatra (With The Metronone All-Stars) - Sweet Lorraine
EXTD=YEAR: 2007
EXTT0=
EXTT1=
EXTT2=
EXTT3=
EXTT4=
EXTT5=
EXTT6=
EXTT7=
EXTT8=
EXTT9=
EXTT10=
EXTT11=
EXTT12=
EXTT13=
PLAYORDER=
